<svg version="1.2" xmlns="http://www.w3.org/2000/svg" viewBox="0 0 512 512" width="512" height="512"><style>.a{stroke:#000;stroke-miterlimit:10;stroke-width:12}</style><path fill-rule="evenodd" class="a" d="m205.6 148.1c23.9 13.8 32.1 44.4 18.3 68.3l-75 129.9c-13.8 23.9-44.4 32.1-68.3 18.3-23.9-13.8-32.1-44.4-18.3-68.3l75-129.9c13.8-24 44.4-32.1 68.3-18.3z"/><path fill-rule="evenodd" class="a" d="m155.7 148c23.9-13.8 54.5-5.6 68.3 18.3l75 130c13.8 23.9 5.6 54.5-18.3 68.3-23.9 13.8-54.5 5.6-68.3-18.3l-75-130c-13.8-23.9-5.6-54.4 18.3-68.3z"/><path fill-rule="evenodd" class="a" d="m355.6 148.1c23.9 13.8 32.1 44.4 18.3 68.3l-75 129.9c-13.8 23.9-44.4 32.1-68.3 18.3-23.9-13.8-32.1-44.4-18.3-68.3l75-129.9c13.8-24 44.4-32.1 68.3-18.3z"/><path fill-rule="evenodd" class="a" d="m406 371c-27.6 0-50-22.4-50-50 0-27.6 22.4-50 50-50 27.6 0 50 22.4 50 50 0 27.6-22.4 50-50 50z"/></svg>